<mxfile host="app.diagrams.net" modified="2023-10-04T13:48:46.699Z" agent="Mozilla/5.0 (Windows NT 10.0; Win64; x64) AppleWebKit/537.36 (KHTML, like Gecko) Chrome/117.0.0.0 Safari/537.36" etag="9C9I7VERLol9jhv3-YII" version="22.0.0" type="github">
  <diagram name="Page-1" id="vVC_4YI8zO_hMbNAO3Pz">
    <mxGraphModel dx="1050" dy="542" grid="1" gridSize="10" guides="1" tooltips="1" connect="1" arrows="1" fold="1" page="1" pageScale="1" pageWidth="850" pageHeight="1100" math="0" shadow="0">
      <root>
        <mxCell id="0" />
        <mxCell id="1" parent="0" />
        <mxCell id="lMf9VeMJt86VJxuizwmK-8" style="edgeStyle=orthogonalEdgeStyle;rounded=0;orthogonalLoop=1;jettySize=auto;html=1;entryX=0;entryY=0.5;entryDx=0;entryDy=0;endArrow=none;endFill=0;" edge="1" parent="1" source="lMf9VeMJt86VJxuizwmK-1" target="lMf9VeMJt86VJxuizwmK-4">
          <mxGeometry relative="1" as="geometry" />
        </mxCell>
        <mxCell id="lMf9VeMJt86VJxuizwmK-14" value="Portfolio Investment" style="edgeLabel;html=1;align=center;verticalAlign=middle;resizable=0;points=[];" vertex="1" connectable="0" parent="lMf9VeMJt86VJxuizwmK-8">
          <mxGeometry x="0.104" relative="1" as="geometry">
            <mxPoint as="offset" />
          </mxGeometry>
        </mxCell>
        <mxCell id="lMf9VeMJt86VJxuizwmK-9" style="edgeStyle=orthogonalEdgeStyle;rounded=0;orthogonalLoop=1;jettySize=auto;html=1;entryX=0.5;entryY=0;entryDx=0;entryDy=0;endArrow=none;endFill=0;" edge="1" parent="1" source="lMf9VeMJt86VJxuizwmK-1" target="lMf9VeMJt86VJxuizwmK-3">
          <mxGeometry relative="1" as="geometry" />
        </mxCell>
        <mxCell id="lMf9VeMJt86VJxuizwmK-15" value="Labour Supply, Wages" style="edgeLabel;html=1;align=center;verticalAlign=middle;resizable=0;points=[];" vertex="1" connectable="0" parent="lMf9VeMJt86VJxuizwmK-9">
          <mxGeometry x="0.0933" y="-2" relative="1" as="geometry">
            <mxPoint as="offset" />
          </mxGeometry>
        </mxCell>
        <mxCell id="lMf9VeMJt86VJxuizwmK-10" style="edgeStyle=orthogonalEdgeStyle;rounded=0;orthogonalLoop=1;jettySize=auto;html=1;entryX=0.5;entryY=1;entryDx=0;entryDy=0;" edge="1" parent="1" source="lMf9VeMJt86VJxuizwmK-1" target="lMf9VeMJt86VJxuizwmK-2">
          <mxGeometry relative="1" as="geometry" />
        </mxCell>
        <mxCell id="lMf9VeMJt86VJxuizwmK-17" value="Constributions" style="edgeLabel;html=1;align=center;verticalAlign=middle;resizable=0;points=[];" vertex="1" connectable="0" parent="lMf9VeMJt86VJxuizwmK-10">
          <mxGeometry x="0.2057" y="-1" relative="1" as="geometry">
            <mxPoint as="offset" />
          </mxGeometry>
        </mxCell>
        <mxCell id="lMf9VeMJt86VJxuizwmK-11" style="edgeStyle=orthogonalEdgeStyle;rounded=0;orthogonalLoop=1;jettySize=auto;html=1;endArrow=none;endFill=0;" edge="1" parent="1" source="lMf9VeMJt86VJxuizwmK-1" target="lMf9VeMJt86VJxuizwmK-7">
          <mxGeometry relative="1" as="geometry" />
        </mxCell>
        <mxCell id="lMf9VeMJt86VJxuizwmK-16" value="Transfers, Taxes" style="edgeLabel;html=1;align=center;verticalAlign=middle;resizable=0;points=[];" vertex="1" connectable="0" parent="lMf9VeMJt86VJxuizwmK-11">
          <mxGeometry x="0.1893" y="-1" relative="1" as="geometry">
            <mxPoint as="offset" />
          </mxGeometry>
        </mxCell>
        <mxCell id="lMf9VeMJt86VJxuizwmK-1" value="Young Households" style="rounded=1;whiteSpace=wrap;html=1;fillColor=#dae8fc;strokeColor=#6c8ebf;fontColor=#003366;fontStyle=1" vertex="1" parent="1">
          <mxGeometry x="330" y="190" width="120" height="60" as="geometry" />
        </mxCell>
        <mxCell id="lMf9VeMJt86VJxuizwmK-2" value="Pension Funds" style="rounded=1;whiteSpace=wrap;html=1;fillColor=#d5e8d4;strokeColor=#82b366;fontColor=#006633;fontStyle=1" vertex="1" parent="1">
          <mxGeometry x="330" y="60" width="120" height="60" as="geometry" />
        </mxCell>
        <mxCell id="lMf9VeMJt86VJxuizwmK-3" value="Firms" style="rounded=1;whiteSpace=wrap;html=1;fillColor=#d5e8d4;strokeColor=#82b366;fontColor=#006633;fontStyle=1" vertex="1" parent="1">
          <mxGeometry x="330" y="310" width="120" height="60" as="geometry" />
        </mxCell>
        <mxCell id="lMf9VeMJt86VJxuizwmK-4" value="Foreign Economy" style="rounded=1;whiteSpace=wrap;html=1;fillColor=#d5e8d4;strokeColor=#82b366;fontColor=#006633;fontStyle=1" vertex="1" parent="1">
          <mxGeometry x="600" y="190" width="120" height="60" as="geometry" />
        </mxCell>
        <mxCell id="lMf9VeMJt86VJxuizwmK-12" style="edgeStyle=orthogonalEdgeStyle;rounded=0;orthogonalLoop=1;jettySize=auto;html=1;entryX=1;entryY=0.25;entryDx=0;entryDy=0;endArrow=none;endFill=0;dashed=1;" edge="1" parent="1" source="lMf9VeMJt86VJxuizwmK-5" target="lMf9VeMJt86VJxuizwmK-1">
          <mxGeometry relative="1" as="geometry" />
        </mxCell>
        <mxCell id="lMf9VeMJt86VJxuizwmK-5" value="Housing Market" style="rounded=1;whiteSpace=wrap;html=1;fillColor=#fff2cc;strokeColor=#d6b656;fontColor=#666600;fontStyle=1" vertex="1" parent="1">
          <mxGeometry x="600" y="60" width="120" height="60" as="geometry" />
        </mxCell>
        <mxCell id="lMf9VeMJt86VJxuizwmK-13" style="edgeStyle=orthogonalEdgeStyle;rounded=0;orthogonalLoop=1;jettySize=auto;html=1;entryX=1;entryY=0.75;entryDx=0;entryDy=0;dashed=1;endArrow=none;endFill=0;" edge="1" parent="1" source="lMf9VeMJt86VJxuizwmK-6" target="lMf9VeMJt86VJxuizwmK-1">
          <mxGeometry relative="1" as="geometry" />
        </mxCell>
        <mxCell id="lMf9VeMJt86VJxuizwmK-19" value="Deposits, Loans" style="edgeLabel;html=1;align=center;verticalAlign=middle;resizable=0;points=[];" vertex="1" connectable="0" parent="lMf9VeMJt86VJxuizwmK-13">
          <mxGeometry x="-0.0259" y="2" relative="1" as="geometry">
            <mxPoint as="offset" />
          </mxGeometry>
        </mxCell>
        <mxCell id="lMf9VeMJt86VJxuizwmK-6" value="Credit Market" style="rounded=1;whiteSpace=wrap;html=1;fillColor=#fff2cc;strokeColor=#d6b656;fontColor=#666600;fontStyle=1" vertex="1" parent="1">
          <mxGeometry x="600" y="310" width="120" height="60" as="geometry" />
        </mxCell>
        <mxCell id="lMf9VeMJt86VJxuizwmK-7" value="Government" style="rounded=1;whiteSpace=wrap;html=1;fillColor=#d5e8d4;strokeColor=#82b366;fontColor=#006633;fontStyle=1" vertex="1" parent="1">
          <mxGeometry x="60" y="190" width="120" height="60" as="geometry" />
        </mxCell>
      </root>
    </mxGraphModel>
  </diagram>
</mxfile>
